# xmcd
#
# Track frame offsets:
#	150
#	9967
#	28756
#	43251
#	60928
#	80758
#	89652
#	114082
#	130548
#	146583
#	165119
#	186600
#	207430
#	218683
#	237349
#	255561
#	278112
#
# Disc length: 3773 seconds
#
# Revision: 0
# Processed by: cddbd v1.5.1PL0 Copyright (c) Steve Scherf et al.
# Submitted via: dBpowerAMP V4.0
#
DISCID=e70ebb11
DTITLE=Pitcho - Regarde Comment!
DYEAR=2003
DGENRE=Hip Hop Belge
TTITLE0=Regarde comment intro
TTITLE1=Ma part du ghetto
TTITLE2=T'aime ça
TTITLE3=La Routine
TTITLE4=Appelle ça
TTITLE5=Dis-moi
TTITLE6=Le bras en l'air, poing serré
TTITLE7=Plus moyen
TTITLE8=Skenfama
TTITLE9=District 1030
TTITLE10=adoucit le meurtre
TTITLE11=Toujours là
TTITLE12=Pas besoin d'eux
TTITLE13=Sang d'encre
TTITLE14=Triomphe et tragédie
TTITLE15=L'Essentiel
TTITLE16=Outro
EXTD=Pitcho - Regarde Comment (Belgian Hip Hop)
EXTT0=
EXTT1=
EXTT2=
EXTT3=
EXTT4=
EXTT5=
EXTT6=
EXTT7=
EXTT8=
EXTT9=
EXTT10=
EXTT11=
EXTT12=
EXTT13=
EXTT14=
EXTT15=
EXTT16=
PLAYORDER=
